<?xml version="1.0" encoding="UTF-8" standalone="no" ?>
<!DOCTYPE svg PUBLIC "-//W3C//DTD SVG 1.1//EN" "http://www.w3.org/Graphics/SVG/1.1/DTD/svg11.dtd">
<svg xmlns="http://www.w3.org/2000/svg" xmlns:xlink="http://www.w3.org/1999/xlink" version="1.1" width="640" height="640" viewBox="0 0 640 640" xml:space="preserve">
<desc>Created with Fabric.js 5.3.0</desc>
<defs>
</defs>
<g transform="matrix(1.5533254774 0 0 1.5533254774 320 320)" id="k98ApHy6GAQiQUqRkzsu5"  >
<g style="" vector-effect="non-scaling-stroke"   >
		<g transform="matrix(1 0 0 1 38.615 -41.395)" id="ukYzPuvtnxH718L3gLSMc"  >
<path style="stroke: none; stroke-width: 1; stroke-dasharray: none; stroke-linecap: butt; stroke-dashoffset: 0; stroke-linejoin: miter; stroke-miterlimit: 4; fill: rgb(250,163,30); fill-rule: nonzero; opacity: 1;" vector-effect="non-scaling-stroke"  transform=" translate(-11.2, -11.2)" d="M 0 11.2 C 0 5.014409999999999 5.01441 0 11.2 0 C 17.38559 0 22.4 5.01441 22.4 11.2 C 22.4 17.38559 17.38559 22.4 11.2 22.4 C 5.014409999999999 22.4 0 17.38559 0 11.2 z" stroke-linecap="round" />
</g>
		<g transform="matrix(1 0 0 1 58.435 -20.085)" id="onrcDRnUrFo9mwR1WCAhu"  >
<path style="stroke: none; stroke-width: 1; stroke-dasharray: none; stroke-linecap: butt; stroke-dashoffset: 0; stroke-linejoin: miter; stroke-miterlimit: 4; fill: rgb(250,163,30); fill-rule: nonzero; opacity: 1;" vector-effect="non-scaling-stroke"  transform=" translate(-11.2, -11.2)" d="M 0 11.2 C 0 5.014409999999999 5.01441 0 11.2 0 C 17.38559 0 22.4 5.01441 22.4 11.2 C 22.4 17.38559 17.38559 22.4 11.2 22.4 C 5.014409999999999 22.4 0 17.38559 0 11.2 z" stroke-linecap="round" />
</g>
		<g transform="matrix(1 0 0 1 -60.625 18.705)" id="tCNqW1Eh013m8ZM7HejKK"  >
<path style="stroke: none; stroke-width: 1; stroke-dasharray: none; stroke-linecap: butt; stroke-dashoffset: 0; stroke-linejoin: miter; stroke-miterlimit: 4; fill: rgb(250,163,30); fill-rule: nonzero; opacity: 1;" vector-effect="non-scaling-stroke"  transform=" translate(-11.2, -11.2)" d="M 0 11.2 C 0 5.014409999999999 5.01441 0 11.2 0 C 17.38559 0 22.4 5.01441 22.4 11.2 C 22.4 17.38559 17.38559 22.4 11.2 22.4 C 5.014409999999999 22.4 0 17.38559 0 11.2 z" stroke-linecap="round" />
</g>
		<g transform="matrix(1 0 0 1 78.705 -0.445)" id="xBgAtnwzm4EnDCC4x-VQG"  >
<path style="stroke: none; stroke-width: 1; stroke-dasharray: none; stroke-linecap: butt; stroke-dashoffset: 0; stroke-linejoin: miter; stroke-miterlimit: 4; fill: rgb(250,163,30); fill-rule: nonzero; opacity: 1;" vector-effect="non-scaling-stroke"  transform=" translate(-9.78, -9.78)" d="M 0 9.78 C 0 4.378659999999999 4.37866 0 9.78 0 C 15.181339999999999 0 19.56 4.37866 19.56 9.78 C 19.56 15.181339999999999 15.181339999999999 19.56 9.78 19.56 C 4.378659999999999 19.56 0 15.181339999999999 0 9.78 z" stroke-linecap="round" />
</g>
		<g transform="matrix(1 0 0 1 78.705 -39.165)" id="wwYBUaq3keBswzgWcxxDd"  >
<path style="stroke: none; stroke-width: 1; stroke-dasharray: none; stroke-linecap: butt; stroke-dashoffset: 0; stroke-linejoin: miter; stroke-miterlimit: 4; fill: rgb(250,163,30); fill-rule: nonzero; opacity: 1;" vector-effect="non-scaling-stroke"  transform=" translate(-9.78, -9.78)" d="M 0 9.78 C 0 4.378659999999999 4.37866 0 9.78 0 C 15.181339999999999 0 19.56 4.37866 19.56 9.78 C 19.56 15.181339999999999 15.181339999999999 19.56 9.78 19.56 C 4.378659999999999 19.56 0 15.181339999999999 0 9.78 z" stroke-linecap="round" />
</g>
		<g transform="matrix(1 0 0 1 -120.105 0.365)" id="vLSRNUlYS8CDPU-ISBMnN"  >
<path style="stroke: none; stroke-width: 1; stroke-dasharray: none; stroke-linecap: butt; stroke-dashoffset: 0; stroke-linejoin: miter; stroke-miterlimit: 4; fill: rgb(250,163,30); fill-rule: nonzero; opacity: 1;" vector-effect="non-scaling-stroke"  transform=" translate(-6.72, -6.72)" d="M 0 6.72 C 0 3.00865 3.00865 0 6.72 0 C 10.43135 0 13.44 3.00865 13.44 6.72 C 13.44 10.43135 10.43135 13.44 6.72 13.44 C 3.00865 13.44 0 10.43135 0 6.72 z" stroke-linecap="round" />
</g>
		<g transform="matrix(1 0 0 1 -100.545 -19.595)" id="PZqLGiABG7nAUzUXSR9IY"  >
<path style="stroke: none; stroke-width: 1; stroke-dasharray: none; stroke-linecap: butt; stroke-dashoffset: 0; stroke-linejoin: miter; stroke-miterlimit: 4; fill: rgb(250,163,30); fill-rule: nonzero; opacity: 1;" vector-effect="non-scaling-stroke"  transform=" translate(-8.56, -8.56)" d="M 0 8.56 C 0 3.83244 3.83244 0 8.56 0 C 13.287560000000001 0 17.12 3.83244 17.12 8.56 C 17.12 13.287560000000001 13.287560000000001 17.12 8.56 17.12 C 3.83244 17.12 0 13.287560000000001 0 8.56 z" stroke-linecap="round" />
</g>
		<g transform="matrix(1 0 0 1 -80.385 0.365)" id="MxV5Oih6ap3oszmB-zUwV"  >
<path style="stroke: none; stroke-width: 1; stroke-dasharray: none; stroke-linecap: butt; stroke-dashoffset: 0; stroke-linejoin: miter; stroke-miterlimit: 4; fill: rgb(250,163,30); fill-rule: nonzero; opacity: 1;" vector-effect="non-scaling-stroke"  transform=" translate(-10.69, -10.69)" d="M 0 10.69 C 0 4.786079999999999 4.78608 0 10.69 0 C 16.59392 0 21.38 4.78608 21.38 10.69 C 21.38 16.59392 16.593919999999997 21.38 10.69 21.38 C 4.786079999999999 21.38 0 16.593919999999997 0 10.69 z" stroke-linecap="round" />
</g>
		<g transform="matrix(1 0 0 1 -80.385 38.665)" id="7BqzjvNxGCf5aaw2c3As2"  >
<path style="stroke: none; stroke-width: 1; stroke-dasharray: none; stroke-linecap: butt; stroke-dashoffset: 0; stroke-linejoin: miter; stroke-miterlimit: 4; fill: rgb(250,163,30); fill-rule: nonzero; opacity: 1;" vector-effect="non-scaling-stroke"  transform=" translate(-10.69, -10.69)" d="M 0 10.69 C 0 4.786079999999999 4.78608 0 10.69 0 C 16.59392 0 21.38 4.78608 21.38 10.69 C 21.38 16.59392 16.593919999999997 21.38 10.69 21.38 C 4.786079999999999 21.38 0 16.593919999999997 0 10.69 z" stroke-linecap="round" />
</g>
		<g transform="matrix(1 0 0 1 -40.155 39.185)" id="ie-Gt4JJZ1CaaBPKJUaAp"  >
<path style="stroke: none; stroke-width: 1; stroke-dasharray: none; stroke-linecap: butt; stroke-dashoffset: 0; stroke-linejoin: miter; stroke-miterlimit: 4; fill: rgb(250,163,30); fill-rule: nonzero; opacity: 1;" vector-effect="non-scaling-stroke"  transform=" translate(-10.69, -10.69)" d="M 0 10.69 C 0 4.786079999999999 4.78608 0 10.69 0 C 16.59392 0 21.38 4.78608 21.38 10.69 C 21.38 16.59392 16.593919999999997 21.38 10.69 21.38 C 4.786079999999999 21.38 0 16.593919999999997 0 10.69 z" stroke-linecap="round" />
</g>
		<g transform="matrix(1 0 0 1 -100.545 19.105)" id="k_NAHaDBII-ZXjWQudTTs"  >
<path style="stroke: none; stroke-width: 1; stroke-dasharray: none; stroke-linecap: butt; stroke-dashoffset: 0; stroke-linejoin: miter; stroke-miterlimit: 4; fill: rgb(250,163,30); fill-rule: nonzero; opacity: 1;" vector-effect="non-scaling-stroke"  transform=" translate(-8.56, -8.56)" d="M 0 8.56 C 0 3.83244 3.83244 0 8.56 0 C 13.287560000000001 0 17.12 3.83244 17.12 8.56 C 17.12 13.287560000000001 13.287560000000001 17.12 8.56 17.12 C 3.83244 17.12 0 13.287560000000001 0 8.56 z" stroke-linecap="round" />
</g>
		<g transform="matrix(1 0 0 1 97.965 19.105)" id="_XeNRWLqIx44HUQZXRbDU"  >
<path style="stroke: none; stroke-width: 1; stroke-dasharray: none; stroke-linecap: butt; stroke-dashoffset: 0; stroke-linejoin: miter; stroke-miterlimit: 4; fill: rgb(250,163,30); fill-rule: nonzero; opacity: 1;" vector-effect="non-scaling-stroke"  transform=" translate(-8.56, -8.56)" d="M 0 8.56 C 0 3.83244 3.83244 0 8.56 0 C 13.287560000000001 0 17.12 3.83244 17.12 8.56 C 17.12 13.287560000000001 13.287560000000001 17.12 8.56 17.12 C 3.83244 17.12 0 13.287560000000001 0 8.56 z" stroke-linecap="round" />
</g>
		<g transform="matrix(1 0 0 1 97.965 -20.085)" id="CuS3VgmHfHcy5et_Z-RWp"  >
<path style="stroke: none; stroke-width: 1; stroke-dasharray: none; stroke-linecap: butt; stroke-dashoffset: 0; stroke-linejoin: miter; stroke-miterlimit: 4; fill: rgb(250,163,30); fill-rule: nonzero; opacity: 1;" vector-effect="non-scaling-stroke"  transform=" translate(-8.56, -8.56)" d="M 0 8.56 C 0 3.83244 3.83244 0 8.56 0 C 13.287560000000001 0 17.12 3.83244 17.12 8.56 C 17.12 13.287560000000001 13.287560000000001 17.12 8.56 17.12 C 3.83244 17.12 0 13.287560000000001 0 8.56 z" stroke-linecap="round" />
</g>
		<g transform="matrix(1 0 0 1 117.445 0.365)" id="yD4psQxLJIqVC5PCxUy2j"  >
<path style="stroke: none; stroke-width: 1; stroke-dasharray: none; stroke-linecap: butt; stroke-dashoffset: 0; stroke-linejoin: miter; stroke-miterlimit: 4; fill: rgb(250,163,30); fill-rule: nonzero; opacity: 1;" vector-effect="non-scaling-stroke"  transform=" translate(-6.05, -6.05)" d="M 0 6.05 C 0 2.7086799999999998 2.70868 0 6.05 0 C 9.39132 0 12.1 2.70868 12.1 6.05 C 12.1 9.39132 9.39132 12.1 6.05 12.1 C 2.7086799999999998 12.1 0 9.39132 0 6.05 z" stroke-linecap="round" />
</g>
		<g transform="matrix(1 0 0 1 117.445 -38.945)" id="vUAg-GAP_j8vDEnYK7zfE"  >
<path style="stroke: none; stroke-width: 1; stroke-dasharray: none; stroke-linecap: butt; stroke-dashoffset: 0; stroke-linejoin: miter; stroke-miterlimit: 4; fill: rgb(250,163,30); fill-rule: nonzero; opacity: 1;" vector-effect="non-scaling-stroke"  transform=" translate(-6.05, -6.05)" d="M 0 6.05 C 0 2.7086799999999998 2.70868 0 6.05 0 C 9.39132 0 12.1 2.70868 12.1 6.05 C 12.1 9.39132 9.39132 12.1 6.05 12.1 C 2.7086799999999998 12.1 0 9.39132 0 6.05 z" stroke-linecap="round" />
</g>
		<g transform="matrix(1 0 0 1 -140.065 -21.225)" id="CHJMkMilDAWDpZuZkTpEu"  >
<path style="stroke: none; stroke-width: 1; stroke-dasharray: none; stroke-linecap: butt; stroke-dashoffset: 0; stroke-linejoin: miter; stroke-miterlimit: 4; fill: rgb(250,163,30); fill-rule: nonzero; opacity: 1;" vector-effect="non-scaling-stroke"  transform=" translate(-3.67, -3.67)" d="M 0 3.67 C 0 1.64311 1.64311 0 3.67 0 C 5.69689 0 7.34 1.64311 7.34 3.67 C 7.34 5.69689 5.69689 7.34 3.67 7.34 C 1.64311 7.34 0 5.69689 0 3.67 z" stroke-linecap="round" />
</g>
		<g transform="matrix(1 0 0 1 -140.065 20.335)" id="m5oADhiIVop7f1xCXUWTz"  >
<path style="stroke: none; stroke-width: 1; stroke-dasharray: none; stroke-linecap: butt; stroke-dashoffset: 0; stroke-linejoin: miter; stroke-miterlimit: 4; fill: rgb(250,163,30); fill-rule: nonzero; opacity: 1;" vector-effect="non-scaling-stroke"  transform=" translate(-3.67, -3.67)" d="M 0 3.67 C 0 1.64311 1.64311 0 3.67 0 C 5.69689 0 7.34 1.64311 7.34 3.67 C 7.34 5.69689 5.69689 7.34 3.67 7.34 C 1.64311 7.34 0 5.69689 0 3.67 z" stroke-linecap="round" />
</g>
		<g transform="matrix(1 0 0 1 -140.065 -0.445)" id="VNXUP3pe4Z5bgA9us-iqr"  >
<path style="stroke: none; stroke-width: 1; stroke-dasharray: none; stroke-linecap: butt; stroke-dashoffset: 0; stroke-linejoin: miter; stroke-miterlimit: 4; fill: rgb(250,163,30); fill-rule: nonzero; opacity: 1;" vector-effect="non-scaling-stroke"  transform=" translate(-3.67, -3.67)" d="M 0 3.67 C 0 1.64311 1.64311 0 3.67 0 C 5.69689 0 7.34 1.64311 7.34 3.67 C 7.34 5.69689 5.69689 7.34 3.67 7.34 C 1.64311 7.34 0 5.69689 0 3.67 z" stroke-linecap="round" />
</g>
		<g transform="matrix(1 0 0 1 139.695 -21.225)" id="jpP6XWkQnaVIWtVWJGZLT"  >
<path style="stroke: none; stroke-width: 1; stroke-dasharray: none; stroke-linecap: butt; stroke-dashoffset: 0; stroke-linejoin: miter; stroke-miterlimit: 4; fill: rgb(250,163,30); fill-rule: nonzero; opacity: 1;" vector-effect="non-scaling-stroke"  transform=" translate(-3.67, -3.67)" d="M 0 3.67 C 0 1.64311 1.64311 0 3.67 0 C 5.69689 0 7.34 1.64311 7.34 3.67 C 7.34 5.69689 5.69689 7.34 3.67 7.34 C 1.64311 7.34 0 5.69689 0 3.67 z" stroke-linecap="round" />
</g>
		<g transform="matrix(1 0 0 1 139.695 20.335)" id="EE64aoNNTktQMUCt1p4K4"  >
<path style="stroke: none; stroke-width: 1; stroke-dasharray: none; stroke-linecap: butt; stroke-dashoffset: 0; stroke-linejoin: miter; stroke-miterlimit: 4; fill: rgb(250,163,30); fill-rule: nonzero; opacity: 1;" vector-effect="non-scaling-stroke"  transform=" translate(-3.67, -3.67)" d="M 0 3.67 C 0 1.64311 1.64311 0 3.67 0 C 5.69689 0 7.34 1.64311 7.34 3.67 C 7.34 5.69689 5.69689 7.34 3.67 7.34 C 1.64311 7.34 0 5.69689 0 3.67 z" stroke-linecap="round" />
</g>
		<g transform="matrix(1 0 0 1 139.695 -0.445)" id="cybrxBEP-8_AXYYP-ImDu"  >
<path style="stroke: none; stroke-width: 1; stroke-dasharray: none; stroke-linecap: butt; stroke-dashoffset: 0; stroke-linejoin: miter; stroke-miterlimit: 4; fill: rgb(250,163,30); fill-rule: nonzero; opacity: 1;" vector-effect="non-scaling-stroke"  transform=" translate(-3.67, -3.67)" d="M 0 3.67 C 0 1.64311 1.64311 0 3.67 0 C 5.69689 0 7.34 1.64311 7.34 3.67 C 7.34 5.69689 5.69689 7.34 3.67 7.34 C 1.64311 7.34 0 5.69689 0 3.67 z" stroke-linecap="round" />
</g>
		<g transform="matrix(1 0 0 1 -158.605 0.365)" id="l0jVAmJFEequqskr1qciI"  >
<path style="stroke: none; stroke-width: 1; stroke-dasharray: none; stroke-linecap: butt; stroke-dashoffset: 0; stroke-linejoin: miter; stroke-miterlimit: 4; fill: rgb(250,163,30); fill-rule: nonzero; opacity: 1;" vector-effect="non-scaling-stroke"  transform=" translate(-2.59, -2.59)" d="M 0 2.59 C 0 1.1595799999999998 1.15958 0 2.59 0 C 4.02042 0 5.18 1.15958 5.18 2.59 C 5.18 4.02042 4.02042 5.18 2.59 5.18 C 1.1595799999999998 5.18 0 4.02042 0 2.59 z" stroke-linecap="round" />
</g>
		<g transform="matrix(1 0 0 1 -120.105 -40.365)" id="Io5e9WFmzZRaqRubeeemf"  >
<path style="stroke: none; stroke-width: 1; stroke-dasharray: none; stroke-linecap: butt; stroke-dashoffset: 0; stroke-linejoin: miter; stroke-miterlimit: 4; fill: rgb(250,163,30); fill-rule: nonzero; opacity: 1;" vector-effect="non-scaling-stroke"  transform=" translate(-5.09, -5.09)" d="M 0 5.09 C 0 2.27887 2.27887 0 5.09 0 C 7.90113 0 10.18 2.27887 10.18 5.09 C 10.18 7.90113 7.90113 10.18 5.09 10.18 C 2.27887 10.18 0 7.90113 0 5.09 z" stroke-linecap="round" />
</g>
		<g transform="matrix(1 0 0 1 -120.105 38.665)" id="_r0zVopDXN8l3FN19Qdfo"  >
<path style="stroke: none; stroke-width: 1; stroke-dasharray: none; stroke-linecap: butt; stroke-dashoffset: 0; stroke-linejoin: miter; stroke-miterlimit: 4; fill: rgb(250,163,30); fill-rule: nonzero; opacity: 1;" vector-effect="non-scaling-stroke"  transform=" translate(-5.09, -5.09)" d="M 0 5.09 C 0 2.27887 2.27887 0 5.09 0 C 7.90113 0 10.18 2.27887 10.18 5.09 C 10.18 7.90113 7.90113 10.18 5.09 10.18 C 2.27887 10.18 0 7.90113 0 5.09 z" stroke-linecap="round" />
</g>
		<g transform="matrix(1 0 0 1 117.445 38.865)" id="paOpEieLs20MP8pNjuzJI"  >
<path style="stroke: none; stroke-width: 1; stroke-dasharray: none; stroke-linecap: butt; stroke-dashoffset: 0; stroke-linejoin: miter; stroke-miterlimit: 4; fill: rgb(250,163,30); fill-rule: nonzero; opacity: 1;" vector-effect="non-scaling-stroke"  transform=" translate(-7.23, -7.23)" d="M 0 7.23 C 0 3.2369800000000004 3.23698 0 7.23 0 C 11.22302 0 14.46 3.23698 14.46 7.23 C 14.46 11.22302 11.223020000000002 14.46 7.23 14.46 C 3.2369800000000004 14.46 0 11.223020000000002 0 7.23 z" stroke-linecap="round" />
</g>
		<g transform="matrix(1 0 0 1 158.545 0.365)" id="ArGegV6D0Hipyq_tZUJz0"  >
<path style="stroke: none; stroke-width: 1; stroke-dasharray: none; stroke-linecap: butt; stroke-dashoffset: 0; stroke-linejoin: miter; stroke-miterlimit: 4; fill: rgb(250,163,30); fill-rule: nonzero; opacity: 1;" vector-effect="non-scaling-stroke"  transform=" translate(-2.65, -2.65)" d="M 0 2.65 C 0 1.18645 1.18645 0 2.65 0 C 4.11355 0 5.3 1.18645 5.3 2.65 C 5.3 4.11355 4.11355 5.3 2.65 5.3 C 1.18645 5.3 0 4.11355 0 2.65 z" stroke-linecap="round" />
</g>
		<g transform="matrix(1 0 0 1 -0.695 0.365)" id="Tkn11LLlYuRs2Eo-BeYDb"  >
<path style="stroke: none; stroke-width: 1; stroke-dasharray: none; stroke-linecap: butt; stroke-dashoffset: 0; stroke-linejoin: miter; stroke-miterlimit: 4; fill: rgb(19,33,59); fill-rule: nonzero; opacity: 1;" vector-effect="non-scaling-stroke"  transform=" translate(-11.2, -11.2)" d="M 0 11.2 C 0 5.014409999999999 5.01441 0 11.2 0 C 17.38559 0 22.4 5.01441 22.4 11.2 C 22.4 17.38559 17.38559 22.4 11.2 22.4 C 5.014409999999999 22.4 0 17.38559 0 11.2 z" stroke-linecap="round" />
</g>
		<g transform="matrix(1 0 0 1 -0.695 -41.395)" id="FI6-MC3oQ1wRvj5M_uAVk"  >
<path style="stroke: none; stroke-width: 1; stroke-dasharray: none; stroke-linecap: butt; stroke-dashoffset: 0; stroke-linejoin: miter; stroke-miterlimit: 4; fill: rgb(19,33,59); fill-rule: nonzero; opacity: 1;" vector-effect="non-scaling-stroke"  transform=" translate(-11.2, -11.2)" d="M 0 11.2 C 0 5.014409999999999 5.01441 0 11.2 0 C 17.38559 0 22.4 5.01441 22.4 11.2 C 22.4 17.38559 17.38559 22.4 11.2 22.4 C 5.014409999999999 22.4 0 17.38559 0 11.2 z" stroke-linecap="round" />
</g>
		<g transform="matrix(1 0 0 1 -40.795 -41.395)" id="tQzgnLYZwtCaUhagA6mu0"  >
<path style="stroke: none; stroke-width: 1; stroke-dasharray: none; stroke-linecap: butt; stroke-dashoffset: 0; stroke-linejoin: miter; stroke-miterlimit: 4; fill: rgb(19,33,59); fill-rule: nonzero; opacity: 1;" vector-effect="non-scaling-stroke"  transform=" translate(-11.2, -11.2)" d="M 0 11.2 C 0 5.014409999999999 5.01441 0 11.2 0 C 17.38559 0 22.4 5.01441 22.4 11.2 C 22.4 17.38559 17.38559 22.4 11.2 22.4 C 5.014409999999999 22.4 0 17.38559 0 11.2 z" stroke-linecap="round" />
</g>
		<g transform="matrix(1 0 0 1 19.235 -20.085)" id="7aq0vXURNQ9gIFF-lB_cK"  >
<path style="stroke: none; stroke-width: 1; stroke-dasharray: none; stroke-linecap: butt; stroke-dashoffset: 0; stroke-linejoin: miter; stroke-miterlimit: 4; fill: rgb(19,33,59); fill-rule: nonzero; opacity: 1;" vector-effect="non-scaling-stroke"  transform=" translate(-11.2, -11.2)" d="M 0 11.2 C 0 5.014409999999999 5.01441 0 11.2 0 C 17.38559 0 22.4 5.01441 22.4 11.2 C 22.4 17.38559 17.38559 22.4 11.2 22.4 C 5.014409999999999 22.4 0 17.38559 0 11.2 z" stroke-linecap="round" />
</g>
		<g transform="matrix(1 0 0 1 58.435 18.705)" id="LF-MzFitCVfHTE198_YHt"  >
<path style="stroke: none; stroke-width: 1; stroke-dasharray: none; stroke-linecap: butt; stroke-dashoffset: 0; stroke-linejoin: miter; stroke-miterlimit: 4; fill: rgb(19,33,59); fill-rule: nonzero; opacity: 1;" vector-effect="non-scaling-stroke"  transform=" translate(-11.2, -11.2)" d="M 0 11.2 C 0 5.014409999999999 5.01441 0 11.2 0 C 17.38559 0 22.4 5.01441 22.4 11.2 C 22.4 17.38559 17.38559 22.4 11.2 22.4 C 5.014409999999999 22.4 0 17.38559 0 11.2 z" stroke-linecap="round" />
</g>
		<g transform="matrix(1 0 0 1 58.435 59.545)" id="28hwTh5PKTcD1EWZ0Oed4"  >
<path style="stroke: none; stroke-width: 1; stroke-dasharray: none; stroke-linecap: butt; stroke-dashoffset: 0; stroke-linejoin: miter; stroke-miterlimit: 4; fill: rgb(19,33,59); fill-rule: nonzero; opacity: 1;" vector-effect="non-scaling-stroke"  transform=" translate(-11.2, -11.2)" d="M 0 11.2 C 0 5.014409999999999 5.01441 0 11.2 0 C 17.38559 0 22.4 5.01441 22.4 11.2 C 22.4 17.38559 17.38559 22.4 11.2 22.4 C 5.014409999999999 22.4 0 17.38559 0 11.2 z" stroke-linecap="round" />
</g>
		<g transform="matrix(1 0 0 1 -60.625 59.545)" id="y-d4QpClQ-PZcML3eU_iy"  >
<path style="stroke: none; stroke-width: 1; stroke-dasharray: none; stroke-linecap: butt; stroke-dashoffset: 0; stroke-linejoin: miter; stroke-miterlimit: 4; fill: rgb(19,33,59); fill-rule: nonzero; opacity: 1;" vector-effect="non-scaling-stroke"  transform=" translate(-11.2, -11.2)" d="M 0 11.2 C 0 5.014409999999999 5.01441 0 11.2 0 C 17.38559 0 22.4 5.01441 22.4 11.2 C 22.4 17.38559 17.38559 22.4 11.2 22.4 C 5.014409999999999 22.4 0 17.38559 0 11.2 z" stroke-linecap="round" />
</g>
		<g transform="matrix(1 0 0 1 -20.905 -20.085)" id="3ygc2YhClSzVjEc5-q5Gk"  >
<path style="stroke: none; stroke-width: 1; stroke-dasharray: none; stroke-linecap: butt; stroke-dashoffset: 0; stroke-linejoin: miter; stroke-miterlimit: 4; fill: rgb(19,33,59); fill-rule: nonzero; opacity: 1;" vector-effect="non-scaling-stroke"  transform=" translate(-11.2, -11.2)" d="M 0 11.2 C 0 5.014409999999999 5.01441 0 11.2 0 C 17.38559 0 22.4 5.01441 22.4 11.2 C 22.4 17.38559 17.38559 22.4 11.2 22.4 C 5.014409999999999 22.4 0 17.38559 0 11.2 z" stroke-linecap="round" />
</g>
		<g transform="matrix(1 0 0 1 -60.625 -20.085)" id="JVXoFMapUTrausrVdlVVT"  >
<path style="stroke: none; stroke-width: 1; stroke-dasharray: none; stroke-linecap: butt; stroke-dashoffset: 0; stroke-linejoin: miter; stroke-miterlimit: 4; fill: rgb(19,33,59); fill-rule: nonzero; opacity: 1;" vector-effect="non-scaling-stroke"  transform=" translate(-11.2, -11.2)" d="M 0 11.2 C 0 5.014409999999999 5.01441 0 11.2 0 C 17.38559 0 22.4 5.01441 22.4 11.2 C 22.4 17.38559 17.38559 22.4 11.2 22.4 C 5.014409999999999 22.4 0 17.38559 0 11.2 z" stroke-linecap="round" />
</g>
		<g transform="matrix(1 0 0 1 58.435 -59.925)" id="tgl06NZHcl-Zpf9D-nqaz"  >
<path style="stroke: none; stroke-width: 1; stroke-dasharray: none; stroke-linecap: butt; stroke-dashoffset: 0; stroke-linejoin: miter; stroke-miterlimit: 4; fill: rgb(19,33,59); fill-rule: nonzero; opacity: 1;" vector-effect="non-scaling-stroke"  transform=" translate(-12.22, -12.22)" d="M 0 12.22 C 0 5.471080000000001 5.47108 0 12.22 0 C 18.96892 0 24.44 5.47108 24.44 12.22 C 24.44 18.96892 18.96892 24.44 12.22 24.44 C 5.471080000000001 24.44 0 18.96892 0 12.22 z" stroke-linecap="round" />
</g>
		<g transform="matrix(1 0 0 1 18.405 -59.515)" id="iqc9AFKtg2zC_DRpHMZeK"  >
<path style="stroke: none; stroke-width: 1; stroke-dasharray: none; stroke-linecap: butt; stroke-dashoffset: 0; stroke-linejoin: miter; stroke-miterlimit: 4; fill: rgb(19,33,59); fill-rule: nonzero; opacity: 1;" vector-effect="non-scaling-stroke"  transform=" translate(-11.81, -11.81)" d="M 0 11.81 C 0 5.287520000000001 5.28752 0 11.81 0 C 18.33248 0 23.62 5.28752 23.62 11.81 C 23.62 18.33248 18.33248 23.62 11.81 23.62 C 5.287520000000001 23.62 0 18.33248 0 11.81 z" stroke-linecap="round" />
</g>
		<g transform="matrix(1 0 0 1 -60.625 -59.515)" id="9IfiqyRm0uAfZ9QruRUiT"  >
<path style="stroke: none; stroke-width: 1; stroke-dasharray: none; stroke-linecap: butt; stroke-dashoffset: 0; stroke-linejoin: miter; stroke-miterlimit: 4; fill: rgb(19,33,59); fill-rule: nonzero; opacity: 1;" vector-effect="non-scaling-stroke"  transform=" translate(-11.81, -11.81)" d="M 0 11.81 C 0 5.287520000000001 5.28752 0 11.81 0 C 18.33248 0 23.62 5.28752 23.62 11.81 C 23.62 18.33248 18.33248 23.62 11.81 23.62 C 5.287520000000001 23.62 0 18.33248 0 11.81 z" stroke-linecap="round" />
</g>
		<g transform="matrix(1 0 0 1 18.405 -98.215)" id="9SYtmKfjwQ2vljXXUhCuj"  >
<path style="stroke: none; stroke-width: 1; stroke-dasharray: none; stroke-linecap: butt; stroke-dashoffset: 0; stroke-linejoin: miter; stroke-miterlimit: 4; fill: rgb(19,33,59); fill-rule: nonzero; opacity: 1;" vector-effect="non-scaling-stroke"  transform=" translate(-7.33, -7.33)" d="M 0 7.33 C 0 3.2817499999999997 3.28175 0 7.33 0 C 11.378250000000001 0 14.66 3.28175 14.66 7.33 C 14.66 11.378250000000001 11.37825 14.66 7.33 14.66 C 3.2817499999999997 14.66 0 11.37825 0 7.33 z" stroke-linecap="round" />
</g>
		<g transform="matrix(1 0 0 1 58.435 -98.215)" id="oSCRgxGl4fTS-0PVIXFcO"  >
<path style="stroke: none; stroke-width: 1; stroke-dasharray: none; stroke-linecap: butt; stroke-dashoffset: 0; stroke-linejoin: miter; stroke-miterlimit: 4; fill: rgb(19,33,59); fill-rule: nonzero; opacity: 1;" vector-effect="non-scaling-stroke"  transform=" translate(-7.33, -7.33)" d="M 0 7.33 C 0 3.2817499999999997 3.28175 0 7.33 0 C 11.378250000000001 0 14.66 3.28175 14.66 7.33 C 14.66 11.378250000000001 11.37825 14.66 7.33 14.66 C 3.2817499999999997 14.66 0 11.37825 0 7.33 z" stroke-linecap="round" />
</g>
		<g transform="matrix(1 0 0 1 97.965 -58.295)" id="wEJ-qMCBwHvl1gUSpZNjo"  >
<path style="stroke: none; stroke-width: 1; stroke-dasharray: none; stroke-linecap: butt; stroke-dashoffset: 0; stroke-linejoin: miter; stroke-miterlimit: 4; fill: rgb(19,33,59); fill-rule: nonzero; opacity: 1;" vector-effect="non-scaling-stroke"  transform=" translate(-7.33, -7.33)" d="M 0 7.33 C 0 3.2817499999999997 3.28175 0 7.33 0 C 11.378250000000001 0 14.66 3.28175 14.66 7.33 C 14.66 11.378250000000001 11.37825 14.66 7.33 14.66 C 3.2817499999999997 14.66 0 11.37825 0 7.33 z" stroke-linecap="round" />
</g>
		<g transform="matrix(1 0 0 1 -21.925 -98.215)" id="gffusqln8UeSUc7oBTTmB"  >
<path style="stroke: none; stroke-width: 1; stroke-dasharray: none; stroke-linecap: butt; stroke-dashoffset: 0; stroke-linejoin: miter; stroke-miterlimit: 4; fill: rgb(19,33,59); fill-rule: nonzero; opacity: 1;" vector-effect="non-scaling-stroke"  transform=" translate(-7.33, -7.33)" d="M 0 7.33 C 0 3.2817499999999997 3.28175 0 7.33 0 C 11.378250000000001 0 14.66 3.28175 14.66 7.33 C 14.66 11.378250000000001 11.37825 14.66 7.33 14.66 C 3.2817499999999997 14.66 0 11.37825 0 7.33 z" stroke-linecap="round" />
</g>
		<g transform="matrix(1 0 0 1 -60.625 -98.215)" id="mJWbzaVkOhr6uSOtxoOVe"  >
<path style="stroke: none; stroke-width: 1; stroke-dasharray: none; stroke-linecap: butt; stroke-dashoffset: 0; stroke-linejoin: miter; stroke-miterlimit: 4; fill: rgb(19,33,59); fill-rule: nonzero; opacity: 1;" vector-effect="non-scaling-stroke"  transform=" translate(-7.33, -7.33)" d="M 0 7.33 C 0 3.2817499999999997 3.28175 0 7.33 0 C 11.378250000000001 0 14.66 3.28175 14.66 7.33 C 14.66 11.378250000000001 11.37825 14.66 7.33 14.66 C 3.2817499999999997 14.66 0 11.37825 0 7.33 z" stroke-linecap="round" />
</g>
		<g transform="matrix(1 0 0 1 -41.075 0.365)" id="EkAZ8dJt1WpjaCp4142jf"  >
<path style="stroke: none; stroke-width: 1; stroke-dasharray: none; stroke-linecap: butt; stroke-dashoffset: 0; stroke-linejoin: miter; stroke-miterlimit: 4; fill: rgb(19,33,59); fill-rule: nonzero; opacity: 1;" vector-effect="non-scaling-stroke"  transform=" translate(-9.78, -9.78)" d="M 0 9.78 C 0 4.378659999999999 4.37866 0 9.78 0 C 15.181339999999999 0 19.56 4.37866 19.56 9.78 C 19.56 15.181339999999999 15.181339999999999 19.56 9.78 19.56 C 4.378659999999999 19.56 0 15.181339999999999 0 9.78 z" stroke-linecap="round" />
</g>
		<g transform="matrix(1 0 0 1 37.695 -0.445)" id="uR5T-7YkFgyFMGl--N-RN"  >
<path style="stroke: none; stroke-width: 1; stroke-dasharray: none; stroke-linecap: butt; stroke-dashoffset: 0; stroke-linejoin: miter; stroke-miterlimit: 4; fill: rgb(19,33,59); fill-rule: nonzero; opacity: 1;" vector-effect="non-scaling-stroke"  transform=" translate(-9.78, -9.78)" d="M 0 9.78 C 0 4.378659999999999 4.37866 0 9.78 0 C 15.181339999999999 0 19.56 4.37866 19.56 9.78 C 19.56 15.181339999999999 15.181339999999999 19.56 9.78 19.56 C 4.378659999999999 19.56 0 15.181339999999999 0 9.78 z" stroke-linecap="round" />
</g>
		<g transform="matrix(1 0 0 1 19.235 19.105)" id="9bFiq6ARGNggwaqkQjeNB"  >
<path style="stroke: none; stroke-width: 1; stroke-dasharray: none; stroke-linecap: butt; stroke-dashoffset: 0; stroke-linejoin: miter; stroke-miterlimit: 4; fill: rgb(19,33,59); fill-rule: nonzero; opacity: 1;" vector-effect="non-scaling-stroke"  transform=" translate(-9.78, -9.78)" d="M 0 9.78 C 0 4.378659999999999 4.37866 0 9.78 0 C 15.181339999999999 0 19.56 4.37866 19.56 9.78 C 19.56 15.181339999999999 15.181339999999999 19.56 9.78 19.56 C 4.378659999999999 19.56 0 15.181339999999999 0 9.78 z" stroke-linecap="round" />
</g>
		<g transform="matrix(1 0 0 1 -21.105 -58.295)" id="xdXgvCRAxbuhmPGlP53rv"  >
<path style="stroke: none; stroke-width: 1; stroke-dasharray: none; stroke-linecap: butt; stroke-dashoffset: 0; stroke-linejoin: miter; stroke-miterlimit: 4; fill: rgb(19,33,59); fill-rule: nonzero; opacity: 1;" vector-effect="non-scaling-stroke"  transform=" translate(-9.78, -9.78)" d="M 0 9.78 C 0 4.378659999999999 4.37866 0 9.78 0 C 15.181339999999999 0 19.56 4.37866 19.56 9.78 C 19.56 15.181339999999999 15.181339999999999 19.56 9.78 19.56 C 4.378659999999999 19.56 0 15.181339999999999 0 9.78 z" stroke-linecap="round" />
</g>
		<g transform="matrix(1 0 0 1 38.615 -78.155)" id="62D8qtTAoPb9quAbTbvho"  >
<path style="stroke: none; stroke-width: 1; stroke-dasharray: none; stroke-linecap: butt; stroke-dashoffset: 0; stroke-linejoin: miter; stroke-miterlimit: 4; fill: rgb(19,33,59); fill-rule: nonzero; opacity: 1;" vector-effect="non-scaling-stroke"  transform=" translate(-9.78, -9.78)" d="M 0 9.78 C 0 4.378659999999999 4.37866 0 9.78 0 C 15.181339999999999 0 19.56 4.37866 19.56 9.78 C 19.56 15.181339999999999 15.181339999999999 19.56 9.78 19.56 C 4.378659999999999 19.56 0 15.181339999999999 0 9.78 z" stroke-linecap="round" />
</g>
		<g transform="matrix(1 0 0 1 78.705 -78.155)" id="UAp8A-bDTqVQzWV6n7prx"  >
<path style="stroke: none; stroke-width: 1; stroke-dasharray: none; stroke-linecap: butt; stroke-dashoffset: 0; stroke-linejoin: miter; stroke-miterlimit: 4; fill: rgb(19,33,59); fill-rule: nonzero; opacity: 1;" vector-effect="non-scaling-stroke"  transform=" translate(-9.78, -9.78)" d="M 0 9.78 C 0 4.378659999999999 4.37866 0 9.78 0 C 15.181339999999999 0 19.56 4.37866 19.56 9.78 C 19.56 15.181339999999999 15.181339999999999 19.56 9.78 19.56 C 4.378659999999999 19.56 0 15.181339999999999 0 9.78 z" stroke-linecap="round" />
</g>
		<g transform="matrix(1 0 0 1 -0.765 -78.665)" id="ZNkb9QCygqJ283lrktELN"  >
<path style="stroke: none; stroke-width: 1; stroke-dasharray: none; stroke-linecap: butt; stroke-dashoffset: 0; stroke-linejoin: miter; stroke-miterlimit: 4; fill: rgb(19,33,59); fill-rule: nonzero; opacity: 1;" vector-effect="non-scaling-stroke"  transform=" translate(-9.78, -9.78)" d="M 0 9.78 C 0 4.378659999999999 4.37866 0 9.78 0 C 15.181339999999999 0 19.56 4.37866 19.56 9.78 C 19.56 15.181339999999999 15.181339999999999 19.56 9.78 19.56 C 4.378659999999999 19.56 0 15.181339999999999 0 9.78 z" stroke-linecap="round" />
</g>
		<g transform="matrix(1 0 0 1 -40.155 -78.155)" id="ntmr9T5UYCVeEqw-MNZWb"  >
<path style="stroke: none; stroke-width: 1; stroke-dasharray: none; stroke-linecap: butt; stroke-dashoffset: 0; stroke-linejoin: miter; stroke-miterlimit: 4; fill: rgb(19,33,59); fill-rule: nonzero; opacity: 1;" vector-effect="non-scaling-stroke"  transform=" translate(-9.78, -9.78)" d="M 0 9.78 C 0 4.378659999999999 4.37866 0 9.78 0 C 15.181339999999999 0 19.56 4.37866 19.56 9.78 C 19.56 15.181339999999999 15.181339999999999 19.56 9.78 19.56 C 4.378659999999999 19.56 0 15.181339999999999 0 9.78 z" stroke-linecap="round" />
</g>
		<g transform="matrix(1 0 0 1 -20.905 20.335)" id="LxpdiLOBH5sOVXZzTkknX"  >
<path style="stroke: none; stroke-width: 1; stroke-dasharray: none; stroke-linecap: butt; stroke-dashoffset: 0; stroke-linejoin: miter; stroke-miterlimit: 4; fill: rgb(19,33,59); fill-rule: nonzero; opacity: 1;" vector-effect="non-scaling-stroke"  transform=" translate(-9.78, -9.78)" d="M 0 9.78 C 0 4.378659999999999 4.37866 0 9.78 0 C 15.181339999999999 0 19.56 4.37866 19.56 9.78 C 19.56 15.181339999999999 15.181339999999999 19.56 9.78 19.56 C 4.378659999999999 19.56 0 15.181339999999999 0 9.78 z" stroke-linecap="round" />
</g>
		<g transform="matrix(1 0 0 1 -100.545 -58.295)" id="o2dmc5a1Ff5syG7FTzx6V"  >
<path style="stroke: none; stroke-width: 1; stroke-dasharray: none; stroke-linecap: butt; stroke-dashoffset: 0; stroke-linejoin: miter; stroke-miterlimit: 4; fill: rgb(19,33,59); fill-rule: nonzero; opacity: 1;" vector-effect="non-scaling-stroke"  transform=" translate(-8.56, -8.56)" d="M 0 8.56 C 0 3.83244 3.83244 0 8.56 0 C 13.287560000000001 0 17.12 3.83244 17.12 8.56 C 17.12 13.287560000000001 13.287560000000001 17.12 8.56 17.12 C 3.83244 17.12 0 13.287560000000001 0 8.56 z" stroke-linecap="round" />
</g>
		<g transform="matrix(1 0 0 1 -80.385 -77.845)" id="eMaHhUz-_8k32UdhJ_cOP"  >
<path style="stroke: none; stroke-width: 1; stroke-dasharray: none; stroke-linecap: butt; stroke-dashoffset: 0; stroke-linejoin: miter; stroke-miterlimit: 4; fill: rgb(19,33,59); fill-rule: nonzero; opacity: 1;" vector-effect="non-scaling-stroke"  transform=" translate(-10.69, -10.69)" d="M 0 10.69 C 0 4.786079999999999 4.78608 0 10.69 0 C 16.59392 0 21.38 4.78608 21.38 10.69 C 21.38 16.59392 16.593919999999997 21.38 10.69 21.38 C 4.786079999999999 21.38 0 16.593919999999997 0 10.69 z" stroke-linecap="round" />
</g>
		<g transform="matrix(1 0 0 1 -80.385 -38.735)" id="FM6VxvJsWtngXFo1KjWdH"  >
<path style="stroke: none; stroke-width: 1; stroke-dasharray: none; stroke-linecap: butt; stroke-dashoffset: 0; stroke-linejoin: miter; stroke-miterlimit: 4; fill: rgb(19,33,59); fill-rule: nonzero; opacity: 1;" vector-effect="non-scaling-stroke"  transform=" translate(-10.69, -10.69)" d="M 0 10.69 C 0 4.786079999999999 4.78608 0 10.69 0 C 16.59392 0 21.38 4.78608 21.38 10.69 C 21.38 16.59392 16.593919999999997 21.38 10.69 21.38 C 4.786079999999999 21.38 0 16.593919999999997 0 10.69 z" stroke-linecap="round" />
</g>
		<g transform="matrix(1 0 0 1 -80.385 78.485)" id="1J9OpW6xZfZStfCw1G_ba"  >
<path style="stroke: none; stroke-width: 1; stroke-dasharray: none; stroke-linecap: butt; stroke-dashoffset: 0; stroke-linejoin: miter; stroke-miterlimit: 4; fill: rgb(19,33,59); fill-rule: nonzero; opacity: 1;" vector-effect="non-scaling-stroke"  transform=" translate(-10.69, -10.69)" d="M 0 10.69 C 0 4.786079999999999 4.78608 0 10.69 0 C 16.59392 0 21.38 4.78608 21.38 10.69 C 21.38 16.59392 16.593919999999997 21.38 10.69 21.38 C 4.786079999999999 21.38 0 16.593919999999997 0 10.69 z" stroke-linecap="round" />
</g>
		<g transform="matrix(1 0 0 1 -41.075 78.485)" id="xuE9bGbxar1g9oB67B46P"  >
<path style="stroke: none; stroke-width: 1; stroke-dasharray: none; stroke-linecap: butt; stroke-dashoffset: 0; stroke-linejoin: miter; stroke-miterlimit: 4; fill: rgb(19,33,59); fill-rule: nonzero; opacity: 1;" vector-effect="non-scaling-stroke"  transform=" translate(-10.69, -10.69)" d="M 0 10.69 C 0 4.786079999999999 4.78608 0 10.69 0 C 16.59392 0 21.38 4.78608 21.38 10.69 C 21.38 16.59392 16.593919999999997 21.38 10.69 21.38 C 4.786079999999999 21.38 0 16.593919999999997 0 10.69 z" stroke-linecap="round" />
</g>
		<g transform="matrix(1 0 0 1 77.785 78.485)" id="EJKPBRJve71h0kbB6LJ12"  >
<path style="stroke: none; stroke-width: 1; stroke-dasharray: none; stroke-linecap: butt; stroke-dashoffset: 0; stroke-linejoin: miter; stroke-miterlimit: 4; fill: rgb(19,33,59); fill-rule: nonzero; opacity: 1;" vector-effect="non-scaling-stroke"  transform=" translate(-10.69, -10.69)" d="M 0 10.69 C 0 4.786079999999999 4.78608 0 10.69 0 C 16.59392 0 21.38 4.78608 21.38 10.69 C 21.38 16.59392 16.593919999999997 21.38 10.69 21.38 C 4.786079999999999 21.38 0 16.593919999999997 0 10.69 z" stroke-linecap="round" />
</g>
		<g transform="matrix(1 0 0 1 38.615 78.485)" id="6NaaEgyOacSCf9yi5L27f"  >
<path style="stroke: none; stroke-width: 1; stroke-dasharray: none; stroke-linecap: butt; stroke-dashoffset: 0; stroke-linejoin: miter; stroke-miterlimit: 4; fill: rgb(19,33,59); fill-rule: nonzero; opacity: 1;" vector-effect="non-scaling-stroke"  transform=" translate(-10.69, -10.69)" d="M 0 10.69 C 0 4.786079999999999 4.78608 0 10.69 0 C 16.59392 0 21.38 4.78608 21.38 10.69 C 21.38 16.59392 16.593919999999997 21.38 10.69 21.38 C 4.786079999999999 21.38 0 16.593919999999997 0 10.69 z" stroke-linecap="round" />
</g>
		<g transform="matrix(1 0 0 1 77.785 39.185)" id="V7-nCaEUilNY0On-0fZS-"  >
<path style="stroke: none; stroke-width: 1; stroke-dasharray: none; stroke-linecap: butt; stroke-dashoffset: 0; stroke-linejoin: miter; stroke-miterlimit: 4; fill: rgb(19,33,59); fill-rule: nonzero; opacity: 1;" vector-effect="non-scaling-stroke"  transform=" translate(-10.69, -10.69)" d="M 0 10.69 C 0 4.786079999999999 4.78608 0 10.69 0 C 16.59392 0 21.38 4.78608 21.38 10.69 C 21.38 16.59392 16.593919999999997 21.38 10.69 21.38 C 4.786079999999999 21.38 0 16.593919999999997 0 10.69 z" stroke-linecap="round" />
</g>
		<g transform="matrix(1 0 0 1 38.615 39.185)" id="yNPfTeszLJyaeynYZpRxg"  >
<path style="stroke: none; stroke-width: 1; stroke-dasharray: none; stroke-linecap: butt; stroke-dashoffset: 0; stroke-linejoin: miter; stroke-miterlimit: 4; fill: rgb(19,33,59); fill-rule: nonzero; opacity: 1;" vector-effect="non-scaling-stroke"  transform=" translate(-10.69, -10.69)" d="M 0 10.69 C 0 4.786079999999999 4.78608 0 10.69 0 C 16.59392 0 21.38 4.78608 21.38 10.69 C 21.38 16.59392 16.593919999999997 21.38 10.69 21.38 C 4.786079999999999 21.38 0 16.593919999999997 0 10.69 z" stroke-linecap="round" />
</g>
		<g transform="matrix(1 0 0 1 -1.015 39.185)" id="UwdqOy6y6Wn4KqSctv2Jo"  >
<path style="stroke: none; stroke-width: 1; stroke-dasharray: none; stroke-linecap: butt; stroke-dashoffset: 0; stroke-linejoin: miter; stroke-miterlimit: 4; fill: rgb(19,33,59); fill-rule: nonzero; opacity: 1;" vector-effect="non-scaling-stroke"  transform=" translate(-10.69, -10.69)" d="M 0 10.69 C 0 4.786079999999999 4.78608 0 10.69 0 C 16.59392 0 21.38 4.78608 21.38 10.69 C 21.38 16.59392 16.593919999999997 21.38 10.69 21.38 C 4.786079999999999 21.38 0 16.593919999999997 0 10.69 z" stroke-linecap="round" />
</g>
		<g transform="matrix(1 0 0 1 -100.545 59.235)" id="xhJih8_F-XMqUPvvjTxg3"  >
<path style="stroke: none; stroke-width: 1; stroke-dasharray: none; stroke-linecap: butt; stroke-dashoffset: 0; stroke-linejoin: miter; stroke-miterlimit: 4; fill: rgb(19,33,59); fill-rule: nonzero; opacity: 1;" vector-effect="non-scaling-stroke"  transform=" translate(-8.56, -8.56)" d="M 0 8.56 C 0 3.83244 3.83244 0 8.56 0 C 13.287560000000001 0 17.12 3.83244 17.12 8.56 C 17.12 13.287560000000001 13.287560000000001 17.12 8.56 17.12 C 3.83244 17.12 0 13.287560000000001 0 8.56 z" stroke-linecap="round" />
</g>
		<g transform="matrix(1 0 0 1 -60.625 97.735)" id="JFUhhJP3qEi__HLvvwxSk"  >
<path style="stroke: none; stroke-width: 1; stroke-dasharray: none; stroke-linecap: butt; stroke-dashoffset: 0; stroke-linejoin: miter; stroke-miterlimit: 4; fill: rgb(19,33,59); fill-rule: nonzero; opacity: 1;" vector-effect="non-scaling-stroke"  transform=" translate(-8.56, -8.56)" d="M 0 8.56 C 0 3.83244 3.83244 0 8.56 0 C 13.287560000000001 0 17.12 3.83244 17.12 8.56 C 17.12 13.287560000000001 13.287560000000001 17.12 8.56 17.12 C 3.83244 17.12 0 13.287560000000001 0 8.56 z" stroke-linecap="round" />
</g>
		<g transform="matrix(1 0 0 1 -20.905 97.735)" id="DZjYiy2o6-aeZZ0uIYrbp"  >
<path style="stroke: none; stroke-width: 1; stroke-dasharray: none; stroke-linecap: butt; stroke-dashoffset: 0; stroke-linejoin: miter; stroke-miterlimit: 4; fill: rgb(19,33,59); fill-rule: nonzero; opacity: 1;" vector-effect="non-scaling-stroke"  transform=" translate(-8.56, -8.56)" d="M 0 8.56 C 0 3.83244 3.83244 0 8.56 0 C 13.287560000000001 0 17.12 3.83244 17.12 8.56 C 17.12 13.287560000000001 13.287560000000001 17.12 8.56 17.12 C 3.83244 17.12 0 13.287560000000001 0 8.56 z" stroke-linecap="round" />
</g>
		<g transform="matrix(1 0 0 1 -0.695 78.485)" id="xR2P4UvSC6NKHLyOaN42I"  >
<path style="stroke: none; stroke-width: 1; stroke-dasharray: none; stroke-linecap: butt; stroke-dashoffset: 0; stroke-linejoin: miter; stroke-miterlimit: 4; fill: rgb(19,33,59); fill-rule: nonzero; opacity: 1;" vector-effect="non-scaling-stroke"  transform=" translate(-8.56, -8.56)" d="M 0 8.56 C 0 3.83244 3.83244 0 8.56 0 C 13.287560000000001 0 17.12 3.83244 17.12 8.56 C 17.12 13.287560000000001 13.287560000000001 17.12 8.56 17.12 C 3.83244 17.12 0 13.287560000000001 0 8.56 z" stroke-linecap="round" />
</g>
		<g transform="matrix(1 0 0 1 18.815 97.735)" id="mY681JnQkRIcU0hdw2YuF"  >
<path style="stroke: none; stroke-width: 1; stroke-dasharray: none; stroke-linecap: butt; stroke-dashoffset: 0; stroke-linejoin: miter; stroke-miterlimit: 4; fill: rgb(19,33,59); fill-rule: nonzero; opacity: 1;" vector-effect="non-scaling-stroke"  transform=" translate(-8.56, -8.56)" d="M 0 8.56 C 0 3.83244 3.83244 0 8.56 0 C 13.287560000000001 0 17.12 3.83244 17.12 8.56 C 17.12 13.287560000000001 13.287560000000001 17.12 8.56 17.12 C 3.83244 17.12 0 13.287560000000001 0 8.56 z" stroke-linecap="round" />
</g>
		<g transform="matrix(1 0 0 1 -20.905 58.435)" id="dlm7cTqIvW2cyR4AUW08b"  >
<path style="stroke: none; stroke-width: 1; stroke-dasharray: none; stroke-linecap: butt; stroke-dashoffset: 0; stroke-linejoin: miter; stroke-miterlimit: 4; fill: rgb(19,33,59); fill-rule: nonzero; opacity: 1;" vector-effect="non-scaling-stroke"  transform=" translate(-8.56, -8.56)" d="M 0 8.56 C 0 3.83244 3.83244 0 8.56 0 C 13.287560000000001 0 17.12 3.83244 17.12 8.56 C 17.12 13.287560000000001 13.287560000000001 17.12 8.56 17.12 C 3.83244 17.12 0 13.287560000000001 0 8.56 z" stroke-linecap="round" />
</g>
		<g transform="matrix(1 0 0 1 19.235 58.435)" id="cgVndvnUlD-ON8nvH-bvZ"  >
<path style="stroke: none; stroke-width: 1; stroke-dasharray: none; stroke-linecap: butt; stroke-dashoffset: 0; stroke-linejoin: miter; stroke-miterlimit: 4; fill: rgb(19,33,59); fill-rule: nonzero; opacity: 1;" vector-effect="non-scaling-stroke"  transform=" translate(-8.56, -8.56)" d="M 0 8.56 C 0 3.83244 3.83244 0 8.56 0 C 13.287560000000001 0 17.12 3.83244 17.12 8.56 C 17.12 13.287560000000001 13.287560000000001 17.12 8.56 17.12 C 3.83244 17.12 0 13.287560000000001 0 8.56 z" stroke-linecap="round" />
</g>
		<g transform="matrix(1 0 0 1 57.865 97.735)" id="9ic70vl8r7KOcTnuv37NR"  >
<path style="stroke: none; stroke-width: 1; stroke-dasharray: none; stroke-linecap: butt; stroke-dashoffset: 0; stroke-linejoin: miter; stroke-miterlimit: 4; fill: rgb(19,33,59); fill-rule: nonzero; opacity: 1;" vector-effect="non-scaling-stroke"  transform=" translate(-8.56, -8.56)" d="M 0 8.56 C 0 3.83244 3.83244 0 8.56 0 C 13.287560000000001 0 17.12 3.83244 17.12 8.56 C 17.12 13.287560000000001 13.287560000000001 17.12 8.56 17.12 C 3.83244 17.12 0 13.287560000000001 0 8.56 z" stroke-linecap="round" />
</g>
		<g transform="matrix(1 0 0 1 97.965 58.305)" id="irxsmGs4T0_p-71j-V6kz"  >
<path style="stroke: none; stroke-width: 1; stroke-dasharray: none; stroke-linecap: butt; stroke-dashoffset: 0; stroke-linejoin: miter; stroke-miterlimit: 4; fill: rgb(19,33,59); fill-rule: nonzero; opacity: 1;" vector-effect="non-scaling-stroke"  transform=" translate(-8.56, -8.56)" d="M 0 8.56 C 0 3.83244 3.83244 0 8.56 0 C 13.287560000000001 0 17.12 3.83244 17.12 8.56 C 17.12 13.287560000000001 13.287560000000001 17.12 8.56 17.12 C 3.83244 17.12 0 13.287560000000001 0 8.56 z" stroke-linecap="round" />
</g>
		<g transform="matrix(1 0 0 1 0.485 155.385)" id="vTv9k7AgU3xrkmkvTN5gI"  >
<path style="stroke: none; stroke-width: 1; stroke-dasharray: none; stroke-linecap: butt; stroke-dashoffset: 0; stroke-linejoin: miter; stroke-miterlimit: 4; fill: rgb(19,33,59); fill-rule: nonzero; opacity: 1;" vector-effect="non-scaling-stroke"  transform=" translate(-3.67, -3.67)" d="M 0 3.67 C 0 1.64311 1.64311 0 3.67 0 C 5.69689 0 7.34 1.64311 7.34 3.67 C 7.34 5.69689 5.69689 7.34 3.67 7.34 C 1.64311 7.34 0 5.69689 0 3.67 z" stroke-linecap="round" />
</g>
		<g transform="matrix(1 0 0 1 -20.905 138.275)" id="s4mnLkR3lfhtNnf0Mx9ga"  >
<path style="stroke: none; stroke-width: 1; stroke-dasharray: none; stroke-linecap: butt; stroke-dashoffset: 0; stroke-linejoin: miter; stroke-miterlimit: 4; fill: rgb(19,33,59); fill-rule: nonzero; opacity: 1;" vector-effect="non-scaling-stroke"  transform=" translate(-5.09, -5.09)" d="M 0 5.09 C 0 2.27887 2.27887 0 5.09 0 C 7.90113 0 10.18 2.27887 10.18 5.09 C 10.18 7.90113 7.90113 10.18 5.09 10.18 C 2.27887 10.18 0 7.90113 0 5.09 z" stroke-linecap="round" />
</g>
		<g transform="matrix(1 0 0 1 18.815 138.275)" id="U7k-nfLBbr0OHAwfc88zI"  >
<path style="stroke: none; stroke-width: 1; stroke-dasharray: none; stroke-linecap: butt; stroke-dashoffset: 0; stroke-linejoin: miter; stroke-miterlimit: 4; fill: rgb(19,33,59); fill-rule: nonzero; opacity: 1;" vector-effect="non-scaling-stroke"  transform=" translate(-5.09, -5.09)" d="M 0 5.09 C 0 2.27887 2.27887 0 5.09 0 C 7.90113 0 10.18 2.27887 10.18 5.09 C 10.18 7.90113 7.90113 10.18 5.09 10.18 C 2.27887 10.18 0 7.90113 0 5.09 z" stroke-linecap="round" />
</g>
		<g transform="matrix(1 0 0 1 -41.075 117.695)" id="jVo-6zj_C7RRr4_8p7NxO"  >
<path style="stroke: none; stroke-width: 1; stroke-dasharray: none; stroke-linecap: butt; stroke-dashoffset: 0; stroke-linejoin: miter; stroke-miterlimit: 4; fill: rgb(19,33,59); fill-rule: nonzero; opacity: 1;" vector-effect="non-scaling-stroke"  transform=" translate(-7.23, -7.23)" d="M 0 7.23 C 0 3.2369800000000004 3.23698 0 7.23 0 C 11.22302 0 14.46 3.23698 14.46 7.23 C 14.46 11.22302 11.223020000000002 14.46 7.23 14.46 C 3.2369800000000004 14.46 0 11.223020000000002 0 7.23 z" stroke-linecap="round" />
</g>
		<g transform="matrix(1 0 0 1 -0.695 117.695)" id="qd-qy5UmzIDUkYjRBm4zt"  >
<path style="stroke: none; stroke-width: 1; stroke-dasharray: none; stroke-linecap: butt; stroke-dashoffset: 0; stroke-linejoin: miter; stroke-miterlimit: 4; fill: rgb(19,33,59); fill-rule: nonzero; opacity: 1;" vector-effect="non-scaling-stroke"  transform=" translate(-7.23, -7.23)" d="M 0 7.23 C 0 3.2369800000000004 3.23698 0 7.23 0 C 11.22302 0 14.46 3.23698 14.46 7.23 C 14.46 11.22302 11.223020000000002 14.46 7.23 14.46 C 3.2369800000000004 14.46 0 11.223020000000002 0 7.23 z" stroke-linecap="round" />
</g>
		<g transform="matrix(1 0 0 1 38.615 117.695)" id="U5I-TCq7vm9YOfAwW4lT5"  >
<path style="stroke: none; stroke-width: 1; stroke-dasharray: none; stroke-linecap: butt; stroke-dashoffset: 0; stroke-linejoin: miter; stroke-miterlimit: 4; fill: rgb(19,33,59); fill-rule: nonzero; opacity: 1;" vector-effect="non-scaling-stroke"  transform=" translate(-7.23, -7.23)" d="M 0 7.23 C 0 3.2369800000000004 3.23698 0 7.23 0 C 11.22302 0 14.46 3.23698 14.46 7.23 C 14.46 11.22302 11.223020000000002 14.46 7.23 14.46 C 3.2369800000000004 14.46 0 11.223020000000002 0 7.23 z" stroke-linecap="round" />
</g>
		<g transform="matrix(1 0 0 1 -0.695 -118.995)" id="Dm6eKqOw-pfV2PFtAeTV9"  >
<path style="stroke: none; stroke-width: 1; stroke-dasharray: none; stroke-linecap: butt; stroke-dashoffset: 0; stroke-linejoin: miter; stroke-miterlimit: 4; fill: rgb(19,33,59); fill-rule: nonzero; opacity: 1;" vector-effect="non-scaling-stroke"  transform=" translate(-6.52, -6.52)" d="M 0 6.52 C 0 2.9190999999999994 2.9191 0 6.52 0 C 10.120899999999999 0 13.04 2.9191 13.04 6.52 C 13.04 10.120899999999999 10.120899999999999 13.04 6.52 13.04 C 2.9190999999999994 13.04 0 10.120899999999999 0 6.52 z" stroke-linecap="round" />
</g>
		<g transform="matrix(1 0 0 1 19.625 -137.055)" id="BDq3-vnmNwl-4Mhg0wfn8"  >
<path style="stroke: none; stroke-width: 1; stroke-dasharray: none; stroke-linecap: butt; stroke-dashoffset: 0; stroke-linejoin: miter; stroke-miterlimit: 4; fill: rgb(19,33,59); fill-rule: nonzero; opacity: 1;" vector-effect="non-scaling-stroke"  transform=" translate(-4.61, -4.61)" d="M 0 4.61 C 0 2.0639700000000003 2.06397 0 4.61 0 C 7.15603 0 9.22 2.06397 9.22 4.61 C 9.22 7.15603 7.156030000000001 9.22 4.61 9.22 C 2.0639700000000003 9.22 0 7.156030000000001 0 4.61 z" stroke-linecap="round" />
</g>
		<g transform="matrix(1 0 0 1 -21.515 -137.055)" id="E2vzExVXiEpD4fjvfxTUH"  >
<path style="stroke: none; stroke-width: 1; stroke-dasharray: none; stroke-linecap: butt; stroke-dashoffset: 0; stroke-linejoin: miter; stroke-miterlimit: 4; fill: rgb(19,33,59); fill-rule: nonzero; opacity: 1;" vector-effect="non-scaling-stroke"  transform=" translate(-4.61, -4.61)" d="M 0 4.61 C 0 2.0639700000000003 2.06397 0 4.61 0 C 7.15603 0 9.22 2.06397 9.22 4.61 C 9.22 7.15603 7.156030000000001 9.22 4.61 9.22 C 2.0639700000000003 9.22 0 7.156030000000001 0 4.61 z" stroke-linecap="round" />
</g>
		<g transform="matrix(1 0 0 1 -0.765 -155.795)" id="rNRMjtkWoZG9XQUR4EBF5"  >
<path style="stroke: none; stroke-width: 1; stroke-dasharray: none; stroke-linecap: butt; stroke-dashoffset: 0; stroke-linejoin: miter; stroke-miterlimit: 4; fill: rgb(19,33,59); fill-rule: nonzero; opacity: 1;" vector-effect="non-scaling-stroke"  transform=" translate(-3.26, -3.26)" d="M 0 3.26 C 0 1.4595499999999997 1.45955 0 3.26 0 C 5.0604499999999994 0 6.52 1.45955 6.52 3.26 C 6.52 5.0604499999999994 5.0604499999999994 6.52 3.26 6.52 C 1.4595499999999997 6.52 0 5.0604499999999994 0 3.26 z" stroke-linecap="round" />
</g>
		<g transform="matrix(1 0 0 1 -40.155 -118.995)" id="9_34EmuKGJa2oYP3ADzOL"  >
<path style="stroke: none; stroke-width: 1; stroke-dasharray: none; stroke-linecap: butt; stroke-dashoffset: 0; stroke-linejoin: miter; stroke-miterlimit: 4; fill: rgb(19,33,59); fill-rule: nonzero; opacity: 1;" vector-effect="non-scaling-stroke"  transform=" translate(-6.52, -6.52)" d="M 0 6.52 C 0 2.9190999999999994 2.9191 0 6.52 0 C 10.120899999999999 0 13.04 2.9191 13.04 6.52 C 13.04 10.120899999999999 10.120899999999999 13.04 6.52 13.04 C 2.9190999999999994 13.04 0 10.120899999999999 0 6.52 z" stroke-linecap="round" />
</g>
		<g transform="matrix(1 0 0 1 37.695 -118.995)" id="L6ZEs06M-ku4DpDl2F55-"  >
<path style="stroke: none; stroke-width: 1; stroke-dasharray: none; stroke-linecap: butt; stroke-dashoffset: 0; stroke-linejoin: miter; stroke-miterlimit: 4; fill: rgb(19,33,59); fill-rule: nonzero; opacity: 1;" vector-effect="non-scaling-stroke"  transform=" translate(-6.52, -6.52)" d="M 0 6.52 C 0 2.9190999999999994 2.9191 0 6.52 0 C 10.120899999999999 0 13.04 2.9191 13.04 6.52 C 13.04 10.120899999999999 10.120899999999999 13.04 6.52 13.04 C 2.9190999999999994 13.04 0 10.120899999999999 0 6.52 z" stroke-linecap="round" />
</g>
</g>
</g>
</svg>